<?xml version="1.0" encoding="UTF-8" standalone="no"?>
<!-- Created with Inkscape (http://www.inkscape.org/) -->

<svg
   width="210mm"
   height="297mm"
   viewBox="0 0 210 297"
   version="1.1"
   id="svg43129"
   inkscape:version="1.2.2 (b0a84865, 2022-12-01)"
   sodipodi:docname="I-yellow.svg"
   xmlns:inkscape="http://www.inkscape.org/namespaces/inkscape"
   xmlns:sodipodi="http://sodipodi.sourceforge.net/DTD/sodipodi-0.dtd"
   xmlns="http://www.w3.org/2000/svg"
   xmlns:svg="http://www.w3.org/2000/svg">
  <sodipodi:namedview
     id="namedview43131"
     pagecolor="#505050"
     bordercolor="#ffffff"
     borderopacity="1"
     inkscape:showpageshadow="0"
     inkscape:pageopacity="0"
     inkscape:pagecheckerboard="1"
     inkscape:deskcolor="#505050"
     inkscape:document-units="mm"
     showgrid="false"
     inkscape:zoom="0.2102413"
     inkscape:cx="399.54091"
     inkscape:cy="561.25985"
     inkscape:window-width="1309"
     inkscape:window-height="456"
     inkscape:window-x="56"
     inkscape:window-y="25"
     inkscape:window-maximized="0"
     inkscape:current-layer="layer1" />
  <defs
     id="defs43126" />
  <g
     inkscape:label="Layer 1"
     inkscape:groupmode="layer"
     id="layer1">
    <path
       style="fill:#44755e;fill-opacity:1;stroke-width:0.176389"
       d="m 96.410554,182.3447 h -0.216683 v -0.0528 -0.0528 l -6.88784,-19.48226 -6.887837,-19.48227 -0.890116,-12.13929 -0.890119,-12.13929 0.06094,-0.0538 0.06094,-0.0538 10.318749,-2.11651 10.318752,-2.1165 0.0625,0.0553 0.0625,0.0553 1.57122,8.33279 1.57122,8.3328 0.0958,0.0958 0.0958,0.0958 1.97464,-0.40872 1.97463,-0.40872 1.18849,-0.26643 1.18849,-0.26643 1.86491,-5.75808 1.86492,-5.75808 0.61217,-1.86891 0.61216,-1.86892 6.65318,2.96286 6.65318,2.96287 0.0421,0.22896 0.0421,0.22897 -2.43863,12.42758 -2.43863,12.42758 1.21041,5.91029 1.21042,5.91028 -0.0726,0.18297 -0.0726,0.18297 -5.32871,2.89623 -5.32871,2.89623 -0.0791,0.20603 -0.0791,0.20603 1.3308,5.50436 1.3308,5.50436 v 0.22183 0.22183 l -11.07221,3.12189 -11.072203,3.1219 z"
       id="path16872" />
  </g>
</svg>
