<?xml version="1.0" encoding="UTF-8" standalone="no"?>
<!-- Created with Inkscape (http://www.inkscape.org/) -->

<svg
   width="210mm"
   height="297mm"
   viewBox="0 0 210 297"
   version="1.1"
   id="svg25146"
   inkscape:version="1.2.2 (b0a84865, 2022-12-01)"
   sodipodi:docname="R-yellow.svg"
   xmlns:inkscape="http://www.inkscape.org/namespaces/inkscape"
   xmlns:sodipodi="http://sodipodi.sourceforge.net/DTD/sodipodi-0.dtd"
   xmlns="http://www.w3.org/2000/svg"
   xmlns:svg="http://www.w3.org/2000/svg">
  <sodipodi:namedview
     id="namedview25148"
     pagecolor="#505050"
     bordercolor="#ffffff"
     borderopacity="1"
     inkscape:showpageshadow="0"
     inkscape:pageopacity="0"
     inkscape:pagecheckerboard="1"
     inkscape:deskcolor="#505050"
     inkscape:document-units="mm"
     showgrid="false"
     inkscape:zoom="0.2102413"
     inkscape:cx="-356.73295"
     inkscape:cy="561.25985"
     inkscape:window-width="1309"
     inkscape:window-height="456"
     inkscape:window-x="55"
     inkscape:window-y="25"
     inkscape:window-maximized="0"
     inkscape:current-layer="layer1" />
  <defs
     id="defs25143" />
  <g
     inkscape:label="Layer 1"
     inkscape:groupmode="layer"
     id="layer1">
    <path
       style="fill:#447550;fill-opacity:1;stroke-width:0.176389"
       d="m 124.60874,177.21505 -0.19584,-0.0139 -9.88261,-6.84031 -9.88261,-6.84032 -14.370871,-2.34068 -14.37087,-2.34068 -0.193305,-0.19778 -0.193278,-0.19777 -1.441,-11.64167 -1.441027,-11.64167 0.0026,-0.28614 0.0026,-0.28614 11.244791,-0.11255 11.244792,-0.11254 3.220349,-0.10791 3.220379,-0.10791 0.32189,-0.72812 0.32189,-0.72813 -0.14131,-5.01783 -0.14134,-5.01782 0.0386,-0.0315 0.0387,-0.0315 17.72708,-1.41057 17.72709,-1.41056 0.0312,0.0235 0.0312,0.0235 -2.10342,12.76479 -2.10343,12.7648 1.92937,10.07576 1.92934,10.07575 0.0547,0.4714 0.0547,0.47141 -6.24234,5.39352 -6.24234,5.39353 -0.19585,-0.0139 z"
       id="path16874" />
  </g>
</svg>
