<?xml version="1.0" encoding="UTF-8" standalone="no"?>
<!-- Created with Inkscape (http://www.inkscape.org/) -->

<svg
   width="210mm"
   height="297mm"
   viewBox="0 0 210 297"
   version="1.1"
   id="svg18406"
   inkscape:version="1.2.2 (b0a84865, 2022-12-01)"
   sodipodi:docname="A-yellow.svg"
   xmlns:inkscape="http://www.inkscape.org/namespaces/inkscape"
   xmlns:sodipodi="http://sodipodi.sourceforge.net/DTD/sodipodi-0.dtd"
   xmlns="http://www.w3.org/2000/svg"
   xmlns:svg="http://www.w3.org/2000/svg">
  <sodipodi:namedview
     id="namedview18408"
     pagecolor="#505050"
     bordercolor="#ffffff"
     borderopacity="1"
     inkscape:showpageshadow="0"
     inkscape:pageopacity="0"
     inkscape:pagecheckerboard="1"
     inkscape:deskcolor="#505050"
     inkscape:document-units="mm"
     showgrid="false"
     inkscape:zoom="0.2102413"
     inkscape:cx="-356.73295"
     inkscape:cy="561.25985"
     inkscape:window-width="1309"
     inkscape:window-height="456"
     inkscape:window-x="55"
     inkscape:window-y="25"
     inkscape:window-maximized="0"
     inkscape:current-layer="layer1" />
  <defs
     id="defs18403" />
  <g
     inkscape:label="Layer 1"
     inkscape:groupmode="layer"
     id="layer1">
    <path
       style="fill:#447550;fill-opacity:1;stroke-width:0.176389"
       d="m 88.41643,180.34303 -0.179518,0.0681 -8.378472,-5.58099 -8.378472,-5.58098 -0.05515,-0.0463 -0.05515,-0.0463 13.081765,-23.78675 13.081765,-23.78675 0.411216,-0.7168 0.411218,-0.7168 6.758688,0.68535 6.75869,0.68536 5.29167,-2.46568 5.29167,-2.46567 0.17638,0.13471 0.17639,0.1347 7.76111,6.04694 7.76112,6.04694 0.22772,0.20957 0.22772,0.20956 -3.05424,3.95522 -3.05424,3.95521 -0.50008,0.65932 -0.50007,0.65932 3.5587,6.38412 3.55871,6.38411 -3.87426,3.87426 -3.87426,3.87427 -5.11201,-0.99583 -5.11201,-0.99582 h -0.29198 -0.29199 l -15.82156,11.57473 -15.821559,11.57473 z"
       id="path16876" />
  </g>
</svg>
