<?xml version="1.0" encoding="UTF-8" standalone="no"?>
<!-- Created with Inkscape (http://www.inkscape.org/) -->

<svg
   width="210mm"
   height="297mm"
   viewBox="0 0 210 297"
   version="1.1"
   id="svg24375"
   inkscape:version="1.2.2 (b0a84865, 2022-12-01)"
   sodipodi:docname="L-yellow.svg"
   xmlns:inkscape="http://www.inkscape.org/namespaces/inkscape"
   xmlns:sodipodi="http://sodipodi.sourceforge.net/DTD/sodipodi-0.dtd"
   xmlns="http://www.w3.org/2000/svg"
   xmlns:svg="http://www.w3.org/2000/svg">
  <sodipodi:namedview
     id="namedview24377"
     pagecolor="#505050"
     bordercolor="#ffffff"
     borderopacity="1"
     inkscape:showpageshadow="0"
     inkscape:pageopacity="0"
     inkscape:pagecheckerboard="1"
     inkscape:deskcolor="#505050"
     inkscape:document-units="mm"
     showgrid="false"
     inkscape:zoom="0.2102413"
     inkscape:cx="-356.73295"
     inkscape:cy="561.25985"
     inkscape:window-width="1309"
     inkscape:window-height="456"
     inkscape:window-x="55"
     inkscape:window-y="25"
     inkscape:window-maximized="0"
     inkscape:current-layer="layer1" />
  <defs
     id="defs24372" />
  <g
     inkscape:label="Layer 1"
     inkscape:groupmode="layer"
     id="layer1">
    <path
       style="fill:#44755e;fill-opacity:1;stroke-width:0.176389"
       d="m 131.14129,180.7452 -0.57327,-0.021 -17.10972,-2.03654 -17.109723,-2.03655 -0.05466,-0.0403 -0.05464,-0.0403 1.036143,-5.29997 1.036161,-5.29997 -1.069692,-0.0953 -1.069694,-0.0952 -8.113888,-0.2938 -8.113889,-0.29381 -0.05932,-0.0483 -0.05934,-0.0483 -0.687528,-8.78349 -0.687527,-8.78349 0.129487,-0.11725 0.129503,-0.11725 10.142362,-6.65648 10.142361,-6.65648 0.03082,-0.0247 0.03081,-0.0247 0.659201,-8.72983 0.659183,-8.72983 0.10376,-0.11931 0.10373,-0.11931 10.59672,2.12902 10.59674,2.12903 4.96958,9.94104 4.9696,9.94105 v 20.19611 20.19612 z"
       id="path16878" />
  </g>
</svg>
